<svg xmlns="http://www.w3.org/2000/svg" viewBox="0 0 100 100" preserveAspectRatio="xMidYMid" style="shape-rendering: auto; display: block; background: transparent;" width="611" height="611" xmlns:xlink="http://www.w3.org/1999/xlink"><g><g transform="rotate(0 50 50)">
  <rect x="28.5" y="8.5" rx="21.5" ry="0.5" width="43" height="1" fill="#05f2ff">
    <animate attributeName="opacity" values="1;0" keyTimes="0;1" dur="0.3546099290780142s" begin="-0.3510280106024787s" repeatCount="indefinite"></animate>
  </rect>
</g><g transform="rotate(3.6363636363636362 50 50)">
  <rect x="28.5" y="8.5" rx="21.5" ry="0.5" width="43" height="1" fill="#05f2ff">
    <animate attributeName="opacity" values="1;0" keyTimes="0;1" dur="0.3546099290780142s" begin="-0.34744609212694316s" repeatCount="indefinite"></animate>
  </rect>
</g><g transform="rotate(7.2727272727272725 50 50)">
  <rect x="28.5" y="8.5" rx="21.5" ry="0.5" width="43" height="1" fill="#05f2ff">
    <animate attributeName="opacity" values="1;0" keyTimes="0;1" dur="0.3546099290780142s" begin="-0.3438641736514077s" repeatCount="indefinite"></animate>
  </rect>
</g><g transform="rotate(10.909090909090908 50 50)">
  <rect x="28.5" y="8.5" rx="21.5" ry="0.5" width="43" height="1" fill="#05f2ff">
    <animate attributeName="opacity" values="1;0" keyTimes="0;1" dur="0.3546099290780142s" begin="-0.3402822551758722s" repeatCount="indefinite"></animate>
  </rect>
</g><g transform="rotate(14.545454545454545 50 50)">
  <rect x="28.5" y="8.5" rx="21.5" ry="0.5" width="43" height="1" fill="#05f2ff">
    <animate attributeName="opacity" values="1;0" keyTimes="0;1" dur="0.3546099290780142s" begin="-0.33670033670033667s" repeatCount="indefinite"></animate>
  </rect>
</g><g transform="rotate(18.181818181818183 50 50)">
  <rect x="28.5" y="8.5" rx="21.5" ry="0.5" width="43" height="1" fill="#05f2ff">
    <animate attributeName="opacity" values="1;0" keyTimes="0;1" dur="0.3546099290780142s" begin="-0.3331184182248012s" repeatCount="indefinite"></animate>
  </rect>
</g><g transform="rotate(21.818181818181817 50 50)">
  <rect x="28.5" y="8.5" rx="21.5" ry="0.5" width="43" height="1" fill="#05f2ff">
    <animate attributeName="opacity" values="1;0" keyTimes="0;1" dur="0.3546099290780142s" begin="-0.3295364997492657s" repeatCount="indefinite"></animate>
  </rect>
</g><g transform="rotate(25.454545454545453 50 50)">
  <rect x="28.5" y="8.5" rx="21.5" ry="0.5" width="43" height="1" fill="#05f2ff">
    <animate attributeName="opacity" values="1;0" keyTimes="0;1" dur="0.3546099290780142s" begin="-0.3259545812737302s" repeatCount="indefinite"></animate>
  </rect>
</g><g transform="rotate(29.09090909090909 50 50)">
  <rect x="28.5" y="8.5" rx="21.5" ry="0.5" width="43" height="1" fill="#05f2ff">
    <animate attributeName="opacity" values="1;0" keyTimes="0;1" dur="0.3546099290780142s" begin="-0.3223726627981947s" repeatCount="indefinite"></animate>
  </rect>
</g><g transform="rotate(32.72727272727273 50 50)">
  <rect x="28.5" y="8.5" rx="21.5" ry="0.5" width="43" height="1" fill="#05f2ff">
    <animate attributeName="opacity" values="1;0" keyTimes="0;1" dur="0.3546099290780142s" begin="-0.3187907443226592s" repeatCount="indefinite"></animate>
  </rect>
</g><g transform="rotate(36.36363636363637 50 50)">
  <rect x="28.5" y="8.5" rx="21.5" ry="0.5" width="43" height="1" fill="#05f2ff">
    <animate attributeName="opacity" values="1;0" keyTimes="0;1" dur="0.3546099290780142s" begin="-0.31520882584712373s" repeatCount="indefinite"></animate>
  </rect>
</g><g transform="rotate(40 50 50)">
  <rect x="28.5" y="8.5" rx="21.5" ry="0.5" width="43" height="1" fill="#05f2ff">
    <animate attributeName="opacity" values="1;0" keyTimes="0;1" dur="0.3546099290780142s" begin="-0.3116269073715882s" repeatCount="indefinite"></animate>
  </rect>
</g><g transform="rotate(43.63636363636363 50 50)">
  <rect x="28.5" y="8.5" rx="21.5" ry="0.5" width="43" height="1" fill="#05f2ff">
    <animate attributeName="opacity" values="1;0" keyTimes="0;1" dur="0.3546099290780142s" begin="-0.3080449888960527s" repeatCount="indefinite"></animate>
  </rect>
</g><g transform="rotate(47.27272727272727 50 50)">
  <rect x="28.5" y="8.5" rx="21.5" ry="0.5" width="43" height="1" fill="#05f2ff">
    <animate attributeName="opacity" values="1;0" keyTimes="0;1" dur="0.3546099290780142s" begin="-0.30446307042051723s" repeatCount="indefinite"></animate>
  </rect>
</g><g transform="rotate(50.90909090909091 50 50)">
  <rect x="28.5" y="8.5" rx="21.5" ry="0.5" width="43" height="1" fill="#05f2ff">
    <animate attributeName="opacity" values="1;0" keyTimes="0;1" dur="0.3546099290780142s" begin="-0.3008811519449817s" repeatCount="indefinite"></animate>
  </rect>
</g><g transform="rotate(54.54545454545455 50 50)">
  <rect x="28.5" y="8.5" rx="21.5" ry="0.5" width="43" height="1" fill="#05f2ff">
    <animate attributeName="opacity" values="1;0" keyTimes="0;1" dur="0.3546099290780142s" begin="-0.29729923346944626s" repeatCount="indefinite"></animate>
  </rect>
</g><g transform="rotate(58.18181818181818 50 50)">
  <rect x="28.5" y="8.5" rx="21.5" ry="0.5" width="43" height="1" fill="#05f2ff">
    <animate attributeName="opacity" values="1;0" keyTimes="0;1" dur="0.3546099290780142s" begin="-0.29371731499391074s" repeatCount="indefinite"></animate>
  </rect>
</g><g transform="rotate(61.81818181818182 50 50)">
  <rect x="28.5" y="8.5" rx="21.5" ry="0.5" width="43" height="1" fill="#05f2ff">
    <animate attributeName="opacity" values="1;0" keyTimes="0;1" dur="0.3546099290780142s" begin="-0.2901353965183752s" repeatCount="indefinite"></animate>
  </rect>
</g><g transform="rotate(65.45454545454545 50 50)">
  <rect x="28.5" y="8.5" rx="21.5" ry="0.5" width="43" height="1" fill="#05f2ff">
    <animate attributeName="opacity" values="1;0" keyTimes="0;1" dur="0.3546099290780142s" begin="-0.28655347804283976s" repeatCount="indefinite"></animate>
  </rect>
</g><g transform="rotate(69.0909090909091 50 50)">
  <rect x="28.5" y="8.5" rx="21.5" ry="0.5" width="43" height="1" fill="#05f2ff">
    <animate attributeName="opacity" values="1;0" keyTimes="0;1" dur="0.3546099290780142s" begin="-0.28297155956730424s" repeatCount="indefinite"></animate>
  </rect>
</g><g transform="rotate(72.72727272727273 50 50)">
  <rect x="28.5" y="8.5" rx="21.5" ry="0.5" width="43" height="1" fill="#05f2ff">
    <animate attributeName="opacity" values="1;0" keyTimes="0;1" dur="0.3546099290780142s" begin="-0.2793896410917687s" repeatCount="indefinite"></animate>
  </rect>
</g><g transform="rotate(76.36363636363636 50 50)">
  <rect x="28.5" y="8.5" rx="21.5" ry="0.5" width="43" height="1" fill="#05f2ff">
    <animate attributeName="opacity" values="1;0" keyTimes="0;1" dur="0.3546099290780142s" begin="-0.27580772261623326s" repeatCount="indefinite"></animate>
  </rect>
</g><g transform="rotate(80 50 50)">
  <rect x="28.5" y="8.5" rx="21.5" ry="0.5" width="43" height="1" fill="#05f2ff">
    <animate attributeName="opacity" values="1;0" keyTimes="0;1" dur="0.3546099290780142s" begin="-0.27222580414069775s" repeatCount="indefinite"></animate>
  </rect>
</g><g transform="rotate(83.63636363636364 50 50)">
  <rect x="28.5" y="8.5" rx="21.5" ry="0.5" width="43" height="1" fill="#05f2ff">
    <animate attributeName="opacity" values="1;0" keyTimes="0;1" dur="0.3546099290780142s" begin="-0.26864388566516223s" repeatCount="indefinite"></animate>
  </rect>
</g><g transform="rotate(87.27272727272727 50 50)">
  <rect x="28.5" y="8.5" rx="21.5" ry="0.5" width="43" height="1" fill="#05f2ff">
    <animate attributeName="opacity" values="1;0" keyTimes="0;1" dur="0.3546099290780142s" begin="-0.26506196718962677s" repeatCount="indefinite"></animate>
  </rect>
</g><g transform="rotate(90.9090909090909 50 50)">
  <rect x="28.5" y="8.5" rx="21.5" ry="0.5" width="43" height="1" fill="#05f2ff">
    <animate attributeName="opacity" values="1;0" keyTimes="0;1" dur="0.3546099290780142s" begin="-0.26148004871409125s" repeatCount="indefinite"></animate>
  </rect>
</g><g transform="rotate(94.54545454545455 50 50)">
  <rect x="28.5" y="8.5" rx="21.5" ry="0.5" width="43" height="1" fill="#05f2ff">
    <animate attributeName="opacity" values="1;0" keyTimes="0;1" dur="0.3546099290780142s" begin="-0.2578981302385558s" repeatCount="indefinite"></animate>
  </rect>
</g><g transform="rotate(98.18181818181819 50 50)">
  <rect x="28.5" y="8.5" rx="21.5" ry="0.5" width="43" height="1" fill="#05f2ff">
    <animate attributeName="opacity" values="1;0" keyTimes="0;1" dur="0.3546099290780142s" begin="-0.2543162117630203s" repeatCount="indefinite"></animate>
  </rect>
</g><g transform="rotate(101.81818181818181 50 50)">
  <rect x="28.5" y="8.5" rx="21.5" ry="0.5" width="43" height="1" fill="#05f2ff">
    <animate attributeName="opacity" values="1;0" keyTimes="0;1" dur="0.3546099290780142s" begin="-0.25073429328748476s" repeatCount="indefinite"></animate>
  </rect>
</g><g transform="rotate(105.45454545454545 50 50)">
  <rect x="28.5" y="8.5" rx="21.5" ry="0.5" width="43" height="1" fill="#05f2ff">
    <animate attributeName="opacity" values="1;0" keyTimes="0;1" dur="0.3546099290780142s" begin="-0.24715237481194927s" repeatCount="indefinite"></animate>
  </rect>
</g><g transform="rotate(109.0909090909091 50 50)">
  <rect x="28.5" y="8.5" rx="21.5" ry="0.5" width="43" height="1" fill="#05f2ff">
    <animate attributeName="opacity" values="1;0" keyTimes="0;1" dur="0.3546099290780142s" begin="-0.24357045633641378s" repeatCount="indefinite"></animate>
  </rect>
</g><g transform="rotate(112.72727272727273 50 50)">
  <rect x="28.5" y="8.5" rx="21.5" ry="0.5" width="43" height="1" fill="#05f2ff">
    <animate attributeName="opacity" values="1;0" keyTimes="0;1" dur="0.3546099290780142s" begin="-0.2399885378608783s" repeatCount="indefinite"></animate>
  </rect>
</g><g transform="rotate(116.36363636363636 50 50)">
  <rect x="28.5" y="8.5" rx="21.5" ry="0.5" width="43" height="1" fill="#05f2ff">
    <animate attributeName="opacity" values="1;0" keyTimes="0;1" dur="0.3546099290780142s" begin="-0.23640661938534277s" repeatCount="indefinite"></animate>
  </rect>
</g><g transform="rotate(120 50 50)">
  <rect x="28.5" y="8.5" rx="21.5" ry="0.5" width="43" height="1" fill="#05f2ff">
    <animate attributeName="opacity" values="1;0" keyTimes="0;1" dur="0.3546099290780142s" begin="-0.23282470090980728s" repeatCount="indefinite"></animate>
  </rect>
</g><g transform="rotate(123.63636363636364 50 50)">
  <rect x="28.5" y="8.5" rx="21.5" ry="0.5" width="43" height="1" fill="#05f2ff">
    <animate attributeName="opacity" values="1;0" keyTimes="0;1" dur="0.3546099290780142s" begin="-0.2292427824342718s" repeatCount="indefinite"></animate>
  </rect>
</g><g transform="rotate(127.27272727272727 50 50)">
  <rect x="28.5" y="8.5" rx="21.5" ry="0.5" width="43" height="1" fill="#05f2ff">
    <animate attributeName="opacity" values="1;0" keyTimes="0;1" dur="0.3546099290780142s" begin="-0.2256608639587363s" repeatCount="indefinite"></animate>
  </rect>
</g><g transform="rotate(130.9090909090909 50 50)">
  <rect x="28.5" y="8.5" rx="21.5" ry="0.5" width="43" height="1" fill="#05f2ff">
    <animate attributeName="opacity" values="1;0" keyTimes="0;1" dur="0.3546099290780142s" begin="-0.22207894548320078s" repeatCount="indefinite"></animate>
  </rect>
</g><g transform="rotate(134.54545454545453 50 50)">
  <rect x="28.5" y="8.5" rx="21.5" ry="0.5" width="43" height="1" fill="#05f2ff">
    <animate attributeName="opacity" values="1;0" keyTimes="0;1" dur="0.3546099290780142s" begin="-0.2184970270076653s" repeatCount="indefinite"></animate>
  </rect>
</g><g transform="rotate(138.1818181818182 50 50)">
  <rect x="28.5" y="8.5" rx="21.5" ry="0.5" width="43" height="1" fill="#05f2ff">
    <animate attributeName="opacity" values="1;0" keyTimes="0;1" dur="0.3546099290780142s" begin="-0.2149151085321298s" repeatCount="indefinite"></animate>
  </rect>
</g><g transform="rotate(141.8181818181818 50 50)">
  <rect x="28.5" y="8.5" rx="21.5" ry="0.5" width="43" height="1" fill="#05f2ff">
    <animate attributeName="opacity" values="1;0" keyTimes="0;1" dur="0.3546099290780142s" begin="-0.21133319005659432s" repeatCount="indefinite"></animate>
  </rect>
</g><g transform="rotate(145.45454545454547 50 50)">
  <rect x="28.5" y="8.5" rx="21.5" ry="0.5" width="43" height="1" fill="#05f2ff">
    <animate attributeName="opacity" values="1;0" keyTimes="0;1" dur="0.3546099290780142s" begin="-0.2077512715810588s" repeatCount="indefinite"></animate>
  </rect>
</g><g transform="rotate(149.0909090909091 50 50)">
  <rect x="28.5" y="8.5" rx="21.5" ry="0.5" width="43" height="1" fill="#05f2ff">
    <animate attributeName="opacity" values="1;0" keyTimes="0;1" dur="0.3546099290780142s" begin="-0.2041693531055233s" repeatCount="indefinite"></animate>
  </rect>
</g><g transform="rotate(152.72727272727272 50 50)">
  <rect x="28.5" y="8.5" rx="21.5" ry="0.5" width="43" height="1" fill="#05f2ff">
    <animate attributeName="opacity" values="1;0" keyTimes="0;1" dur="0.3546099290780142s" begin="-0.20058743462998782s" repeatCount="indefinite"></animate>
  </rect>
</g><g transform="rotate(156.36363636363637 50 50)">
  <rect x="28.5" y="8.5" rx="21.5" ry="0.5" width="43" height="1" fill="#05f2ff">
    <animate attributeName="opacity" values="1;0" keyTimes="0;1" dur="0.3546099290780142s" begin="-0.19700551615445233s" repeatCount="indefinite"></animate>
  </rect>
</g><g transform="rotate(160 50 50)">
  <rect x="28.5" y="8.5" rx="21.5" ry="0.5" width="43" height="1" fill="#05f2ff">
    <animate attributeName="opacity" values="1;0" keyTimes="0;1" dur="0.3546099290780142s" begin="-0.19342359767891681s" repeatCount="indefinite"></animate>
  </rect>
</g><g transform="rotate(163.63636363636363 50 50)">
  <rect x="28.5" y="8.5" rx="21.5" ry="0.5" width="43" height="1" fill="#05f2ff">
    <animate attributeName="opacity" values="1;0" keyTimes="0;1" dur="0.3546099290780142s" begin="-0.18984167920338132s" repeatCount="indefinite"></animate>
  </rect>
</g><g transform="rotate(167.27272727272728 50 50)">
  <rect x="28.5" y="8.5" rx="21.5" ry="0.5" width="43" height="1" fill="#05f2ff">
    <animate attributeName="opacity" values="1;0" keyTimes="0;1" dur="0.3546099290780142s" begin="-0.18625976072784584s" repeatCount="indefinite"></animate>
  </rect>
</g><g transform="rotate(170.9090909090909 50 50)">
  <rect x="28.5" y="8.5" rx="21.5" ry="0.5" width="43" height="1" fill="#05f2ff">
    <animate attributeName="opacity" values="1;0" keyTimes="0;1" dur="0.3546099290780142s" begin="-0.18267784225231035s" repeatCount="indefinite"></animate>
  </rect>
</g><g transform="rotate(174.54545454545453 50 50)">
  <rect x="28.5" y="8.5" rx="21.5" ry="0.5" width="43" height="1" fill="#05f2ff">
    <animate attributeName="opacity" values="1;0" keyTimes="0;1" dur="0.3546099290780142s" begin="-0.17909592377677483s" repeatCount="indefinite"></animate>
  </rect>
</g><g transform="rotate(178.1818181818182 50 50)">
  <rect x="28.5" y="8.5" rx="21.5" ry="0.5" width="43" height="1" fill="#05f2ff">
    <animate attributeName="opacity" values="1;0" keyTimes="0;1" dur="0.3546099290780142s" begin="-0.17551400530123934s" repeatCount="indefinite"></animate>
  </rect>
</g><g transform="rotate(181.8181818181818 50 50)">
  <rect x="28.5" y="8.5" rx="21.5" ry="0.5" width="43" height="1" fill="#05f2ff">
    <animate attributeName="opacity" values="1;0" keyTimes="0;1" dur="0.3546099290780142s" begin="-0.17193208682570385s" repeatCount="indefinite"></animate>
  </rect>
</g><g transform="rotate(185.45454545454547 50 50)">
  <rect x="28.5" y="8.5" rx="21.5" ry="0.5" width="43" height="1" fill="#05f2ff">
    <animate attributeName="opacity" values="1;0" keyTimes="0;1" dur="0.3546099290780142s" begin="-0.16835016835016833s" repeatCount="indefinite"></animate>
  </rect>
</g><g transform="rotate(189.0909090909091 50 50)">
  <rect x="28.5" y="8.5" rx="21.5" ry="0.5" width="43" height="1" fill="#05f2ff">
    <animate attributeName="opacity" values="1;0" keyTimes="0;1" dur="0.3546099290780142s" begin="-0.16476824987463284s" repeatCount="indefinite"></animate>
  </rect>
</g><g transform="rotate(192.72727272727272 50 50)">
  <rect x="28.5" y="8.5" rx="21.5" ry="0.5" width="43" height="1" fill="#05f2ff">
    <animate attributeName="opacity" values="1;0" keyTimes="0;1" dur="0.3546099290780142s" begin="-0.16118633139909735s" repeatCount="indefinite"></animate>
  </rect>
</g><g transform="rotate(196.36363636363637 50 50)">
  <rect x="28.5" y="8.5" rx="21.5" ry="0.5" width="43" height="1" fill="#05f2ff">
    <animate attributeName="opacity" values="1;0" keyTimes="0;1" dur="0.3546099290780142s" begin="-0.15760441292356187s" repeatCount="indefinite"></animate>
  </rect>
</g><g transform="rotate(200 50 50)">
  <rect x="28.5" y="8.5" rx="21.5" ry="0.5" width="43" height="1" fill="#05f2ff">
    <animate attributeName="opacity" values="1;0" keyTimes="0;1" dur="0.3546099290780142s" begin="-0.15402249444802635s" repeatCount="indefinite"></animate>
  </rect>
</g><g transform="rotate(203.63636363636363 50 50)">
  <rect x="28.5" y="8.5" rx="21.5" ry="0.5" width="43" height="1" fill="#05f2ff">
    <animate attributeName="opacity" values="1;0" keyTimes="0;1" dur="0.3546099290780142s" begin="-0.15044057597249086s" repeatCount="indefinite"></animate>
  </rect>
</g><g transform="rotate(207.27272727272728 50 50)">
  <rect x="28.5" y="8.5" rx="21.5" ry="0.5" width="43" height="1" fill="#05f2ff">
    <animate attributeName="opacity" values="1;0" keyTimes="0;1" dur="0.3546099290780142s" begin="-0.14685865749695537s" repeatCount="indefinite"></animate>
  </rect>
</g><g transform="rotate(210.9090909090909 50 50)">
  <rect x="28.5" y="8.5" rx="21.5" ry="0.5" width="43" height="1" fill="#05f2ff">
    <animate attributeName="opacity" values="1;0" keyTimes="0;1" dur="0.3546099290780142s" begin="-0.14327673902141988s" repeatCount="indefinite"></animate>
  </rect>
</g><g transform="rotate(214.54545454545453 50 50)">
  <rect x="28.5" y="8.5" rx="21.5" ry="0.5" width="43" height="1" fill="#05f2ff">
    <animate attributeName="opacity" values="1;0" keyTimes="0;1" dur="0.3546099290780142s" begin="-0.13969482054588436s" repeatCount="indefinite"></animate>
  </rect>
</g><g transform="rotate(218.1818181818182 50 50)">
  <rect x="28.5" y="8.5" rx="21.5" ry="0.5" width="43" height="1" fill="#05f2ff">
    <animate attributeName="opacity" values="1;0" keyTimes="0;1" dur="0.3546099290780142s" begin="-0.13611290207034887s" repeatCount="indefinite"></animate>
  </rect>
</g><g transform="rotate(221.8181818181818 50 50)">
  <rect x="28.5" y="8.5" rx="21.5" ry="0.5" width="43" height="1" fill="#05f2ff">
    <animate attributeName="opacity" values="1;0" keyTimes="0;1" dur="0.3546099290780142s" begin="-0.13253098359481338s" repeatCount="indefinite"></animate>
  </rect>
</g><g transform="rotate(225.45454545454547 50 50)">
  <rect x="28.5" y="8.5" rx="21.5" ry="0.5" width="43" height="1" fill="#05f2ff">
    <animate attributeName="opacity" values="1;0" keyTimes="0;1" dur="0.3546099290780142s" begin="-0.1289490651192779s" repeatCount="indefinite"></animate>
  </rect>
</g><g transform="rotate(229.0909090909091 50 50)">
  <rect x="28.5" y="8.5" rx="21.5" ry="0.5" width="43" height="1" fill="#05f2ff">
    <animate attributeName="opacity" values="1;0" keyTimes="0;1" dur="0.3546099290780142s" begin="-0.12536714664374238s" repeatCount="indefinite"></animate>
  </rect>
</g><g transform="rotate(232.72727272727272 50 50)">
  <rect x="28.5" y="8.5" rx="21.5" ry="0.5" width="43" height="1" fill="#05f2ff">
    <animate attributeName="opacity" values="1;0" keyTimes="0;1" dur="0.3546099290780142s" begin="-0.12178522816820689s" repeatCount="indefinite"></animate>
  </rect>
</g><g transform="rotate(236.36363636363637 50 50)">
  <rect x="28.5" y="8.5" rx="21.5" ry="0.5" width="43" height="1" fill="#05f2ff">
    <animate attributeName="opacity" values="1;0" keyTimes="0;1" dur="0.3546099290780142s" begin="-0.11820330969267138s" repeatCount="indefinite"></animate>
  </rect>
</g><g transform="rotate(240 50 50)">
  <rect x="28.5" y="8.5" rx="21.5" ry="0.5" width="43" height="1" fill="#05f2ff">
    <animate attributeName="opacity" values="1;0" keyTimes="0;1" dur="0.3546099290780142s" begin="-0.1146213912171359s" repeatCount="indefinite"></animate>
  </rect>
</g><g transform="rotate(243.63636363636363 50 50)">
  <rect x="28.5" y="8.5" rx="21.5" ry="0.5" width="43" height="1" fill="#05f2ff">
    <animate attributeName="opacity" values="1;0" keyTimes="0;1" dur="0.3546099290780142s" begin="-0.11103947274160039s" repeatCount="indefinite"></animate>
  </rect>
</g><g transform="rotate(247.27272727272728 50 50)">
  <rect x="28.5" y="8.5" rx="21.5" ry="0.5" width="43" height="1" fill="#05f2ff">
    <animate attributeName="opacity" values="1;0" keyTimes="0;1" dur="0.3546099290780142s" begin="-0.1074575542660649s" repeatCount="indefinite"></animate>
  </rect>
</g><g transform="rotate(250.9090909090909 50 50)">
  <rect x="28.5" y="8.5" rx="21.5" ry="0.5" width="43" height="1" fill="#05f2ff">
    <animate attributeName="opacity" values="1;0" keyTimes="0;1" dur="0.3546099290780142s" begin="-0.1038756357905294s" repeatCount="indefinite"></animate>
  </rect>
</g><g transform="rotate(254.54545454545453 50 50)">
  <rect x="28.5" y="8.5" rx="21.5" ry="0.5" width="43" height="1" fill="#05f2ff">
    <animate attributeName="opacity" values="1;0" keyTimes="0;1" dur="0.3546099290780142s" begin="-0.10029371731499391s" repeatCount="indefinite"></animate>
  </rect>
</g><g transform="rotate(258.1818181818182 50 50)">
  <rect x="28.5" y="8.5" rx="21.5" ry="0.5" width="43" height="1" fill="#05f2ff">
    <animate attributeName="opacity" values="1;0" keyTimes="0;1" dur="0.3546099290780142s" begin="-0.09671179883945841s" repeatCount="indefinite"></animate>
  </rect>
</g><g transform="rotate(261.8181818181818 50 50)">
  <rect x="28.5" y="8.5" rx="21.5" ry="0.5" width="43" height="1" fill="#05f2ff">
    <animate attributeName="opacity" values="1;0" keyTimes="0;1" dur="0.3546099290780142s" begin="-0.09312988036392292s" repeatCount="indefinite"></animate>
  </rect>
</g><g transform="rotate(265.45454545454544 50 50)">
  <rect x="28.5" y="8.5" rx="21.5" ry="0.5" width="43" height="1" fill="#05f2ff">
    <animate attributeName="opacity" values="1;0" keyTimes="0;1" dur="0.3546099290780142s" begin="-0.08954796188838741s" repeatCount="indefinite"></animate>
  </rect>
</g><g transform="rotate(269.09090909090907 50 50)">
  <rect x="28.5" y="8.5" rx="21.5" ry="0.5" width="43" height="1" fill="#05f2ff">
    <animate attributeName="opacity" values="1;0" keyTimes="0;1" dur="0.3546099290780142s" begin="-0.08596604341285193s" repeatCount="indefinite"></animate>
  </rect>
</g><g transform="rotate(272.72727272727275 50 50)">
  <rect x="28.5" y="8.5" rx="21.5" ry="0.5" width="43" height="1" fill="#05f2ff">
    <animate attributeName="opacity" values="1;0" keyTimes="0;1" dur="0.3546099290780142s" begin="-0.08238412493731642s" repeatCount="indefinite"></animate>
  </rect>
</g><g transform="rotate(276.3636363636364 50 50)">
  <rect x="28.5" y="8.5" rx="21.5" ry="0.5" width="43" height="1" fill="#05f2ff">
    <animate attributeName="opacity" values="1;0" keyTimes="0;1" dur="0.3546099290780142s" begin="-0.07880220646178093s" repeatCount="indefinite"></animate>
  </rect>
</g><g transform="rotate(280 50 50)">
  <rect x="28.5" y="8.5" rx="21.5" ry="0.5" width="43" height="1" fill="#05f2ff">
    <animate attributeName="opacity" values="1;0" keyTimes="0;1" dur="0.3546099290780142s" begin="-0.07522028798624543s" repeatCount="indefinite"></animate>
  </rect>
</g><g transform="rotate(283.6363636363636 50 50)">
  <rect x="28.5" y="8.5" rx="21.5" ry="0.5" width="43" height="1" fill="#05f2ff">
    <animate attributeName="opacity" values="1;0" keyTimes="0;1" dur="0.3546099290780142s" begin="-0.07163836951070994s" repeatCount="indefinite"></animate>
  </rect>
</g><g transform="rotate(287.27272727272725 50 50)">
  <rect x="28.5" y="8.5" rx="21.5" ry="0.5" width="43" height="1" fill="#05f2ff">
    <animate attributeName="opacity" values="1;0" keyTimes="0;1" dur="0.3546099290780142s" begin="-0.06805645103517444s" repeatCount="indefinite"></animate>
  </rect>
</g><g transform="rotate(290.90909090909093 50 50)">
  <rect x="28.5" y="8.5" rx="21.5" ry="0.5" width="43" height="1" fill="#05f2ff">
    <animate attributeName="opacity" values="1;0" keyTimes="0;1" dur="0.3546099290780142s" begin="-0.06447453255963895s" repeatCount="indefinite"></animate>
  </rect>
</g><g transform="rotate(294.54545454545456 50 50)">
  <rect x="28.5" y="8.5" rx="21.5" ry="0.5" width="43" height="1" fill="#05f2ff">
    <animate attributeName="opacity" values="1;0" keyTimes="0;1" dur="0.3546099290780142s" begin="-0.060892614084103444s" repeatCount="indefinite"></animate>
  </rect>
</g><g transform="rotate(298.1818181818182 50 50)">
  <rect x="28.5" y="8.5" rx="21.5" ry="0.5" width="43" height="1" fill="#05f2ff">
    <animate attributeName="opacity" values="1;0" keyTimes="0;1" dur="0.3546099290780142s" begin="-0.05731069560856795s" repeatCount="indefinite"></animate>
  </rect>
</g><g transform="rotate(301.8181818181818 50 50)">
  <rect x="28.5" y="8.5" rx="21.5" ry="0.5" width="43" height="1" fill="#05f2ff">
    <animate attributeName="opacity" values="1;0" keyTimes="0;1" dur="0.3546099290780142s" begin="-0.05372877713303245s" repeatCount="indefinite"></animate>
  </rect>
</g><g transform="rotate(305.45454545454544 50 50)">
  <rect x="28.5" y="8.5" rx="21.5" ry="0.5" width="43" height="1" fill="#05f2ff">
    <animate attributeName="opacity" values="1;0" keyTimes="0;1" dur="0.3546099290780142s" begin="-0.050146858657496955s" repeatCount="indefinite"></animate>
  </rect>
</g><g transform="rotate(309.09090909090907 50 50)">
  <rect x="28.5" y="8.5" rx="21.5" ry="0.5" width="43" height="1" fill="#05f2ff">
    <animate attributeName="opacity" values="1;0" keyTimes="0;1" dur="0.3546099290780142s" begin="-0.04656494018196146s" repeatCount="indefinite"></animate>
  </rect>
</g><g transform="rotate(312.72727272727275 50 50)">
  <rect x="28.5" y="8.5" rx="21.5" ry="0.5" width="43" height="1" fill="#05f2ff">
    <animate attributeName="opacity" values="1;0" keyTimes="0;1" dur="0.3546099290780142s" begin="-0.04298302170642596s" repeatCount="indefinite"></animate>
  </rect>
</g><g transform="rotate(316.3636363636364 50 50)">
  <rect x="28.5" y="8.5" rx="21.5" ry="0.5" width="43" height="1" fill="#05f2ff">
    <animate attributeName="opacity" values="1;0" keyTimes="0;1" dur="0.3546099290780142s" begin="-0.039401103230890466s" repeatCount="indefinite"></animate>
  </rect>
</g><g transform="rotate(320 50 50)">
  <rect x="28.5" y="8.5" rx="21.5" ry="0.5" width="43" height="1" fill="#05f2ff">
    <animate attributeName="opacity" values="1;0" keyTimes="0;1" dur="0.3546099290780142s" begin="-0.03581918475535497s" repeatCount="indefinite"></animate>
  </rect>
</g><g transform="rotate(323.6363636363636 50 50)">
  <rect x="28.5" y="8.5" rx="21.5" ry="0.5" width="43" height="1" fill="#05f2ff">
    <animate attributeName="opacity" values="1;0" keyTimes="0;1" dur="0.3546099290780142s" begin="-0.032237266279819474s" repeatCount="indefinite"></animate>
  </rect>
</g><g transform="rotate(327.27272727272725 50 50)">
  <rect x="28.5" y="8.5" rx="21.5" ry="0.5" width="43" height="1" fill="#05f2ff">
    <animate attributeName="opacity" values="1;0" keyTimes="0;1" dur="0.3546099290780142s" begin="-0.028655347804283974s" repeatCount="indefinite"></animate>
  </rect>
</g><g transform="rotate(330.90909090909093 50 50)">
  <rect x="28.5" y="8.5" rx="21.5" ry="0.5" width="43" height="1" fill="#05f2ff">
    <animate attributeName="opacity" values="1;0" keyTimes="0;1" dur="0.3546099290780142s" begin="-0.025073429328748478s" repeatCount="indefinite"></animate>
  </rect>
</g><g transform="rotate(334.54545454545456 50 50)">
  <rect x="28.5" y="8.5" rx="21.5" ry="0.5" width="43" height="1" fill="#05f2ff">
    <animate attributeName="opacity" values="1;0" keyTimes="0;1" dur="0.3546099290780142s" begin="-0.02149151085321298s" repeatCount="indefinite"></animate>
  </rect>
</g><g transform="rotate(338.1818181818182 50 50)">
  <rect x="28.5" y="8.5" rx="21.5" ry="0.5" width="43" height="1" fill="#05f2ff">
    <animate attributeName="opacity" values="1;0" keyTimes="0;1" dur="0.3546099290780142s" begin="-0.017909592377677485s" repeatCount="indefinite"></animate>
  </rect>
</g><g transform="rotate(341.8181818181818 50 50)">
  <rect x="28.5" y="8.5" rx="21.5" ry="0.5" width="43" height="1" fill="#05f2ff">
    <animate attributeName="opacity" values="1;0" keyTimes="0;1" dur="0.3546099290780142s" begin="-0.014327673902141987s" repeatCount="indefinite"></animate>
  </rect>
</g><g transform="rotate(345.45454545454544 50 50)">
  <rect x="28.5" y="8.5" rx="21.5" ry="0.5" width="43" height="1" fill="#05f2ff">
    <animate attributeName="opacity" values="1;0" keyTimes="0;1" dur="0.3546099290780142s" begin="-0.01074575542660649s" repeatCount="indefinite"></animate>
  </rect>
</g><g transform="rotate(349.09090909090907 50 50)">
  <rect x="28.5" y="8.5" rx="21.5" ry="0.5" width="43" height="1" fill="#05f2ff">
    <animate attributeName="opacity" values="1;0" keyTimes="0;1" dur="0.3546099290780142s" begin="-0.0071638369510709935s" repeatCount="indefinite"></animate>
  </rect>
</g><g transform="rotate(352.72727272727275 50 50)">
  <rect x="28.5" y="8.5" rx="21.5" ry="0.5" width="43" height="1" fill="#05f2ff">
    <animate attributeName="opacity" values="1;0" keyTimes="0;1" dur="0.3546099290780142s" begin="-0.0035819184755354967s" repeatCount="indefinite"></animate>
  </rect>
</g><g transform="rotate(356.3636363636364 50 50)">
  <rect x="28.5" y="8.5" rx="21.5" ry="0.5" width="43" height="1" fill="#05f2ff">
    <animate attributeName="opacity" values="1;0" keyTimes="0;1" dur="0.3546099290780142s" begin="0s" repeatCount="indefinite"></animate>
  </rect>
</g><g></g></g><!-- [ldio] generated by https://loading.io --></svg>